<?xml version="1.0" standalone="no"?><!DOCTYPE svg PUBLIC "-//W3C//DTD SVG 1.1//EN" "http://www.w3.org/Graphics/SVG/1.1/DTD/svg11.dtd"><svg t="1536141741781" class="icon" style="" viewBox="0 0 1297 1024" version="1.1" xmlns="http://www.w3.org/2000/svg" p-id="1635" xmlns:xlink="http://www.w3.org/1999/xlink" width="253.3203125" height="200"><defs><style type="text/css"></style></defs><path d="M373.787307 963.66592c-55.9104 0-101.403307-45.479253-101.403307-101.403307 0-55.896747 45.492907-101.403307 101.403307-101.403306 55.924053 0 101.403307 45.50656 101.403306 101.403306 0 55.924053-45.479253 101.403307-101.403306 101.403307m0-250.59328c82.261333 0 149.189973 66.942293 149.189973 149.189973 0 82.274987-66.92864 149.189973-149.189973 149.189974-82.24768 0-149.189973-66.914987-149.189974-149.189974 0-82.24768 66.942293-149.189973 149.189974-149.189973z m603.66848 250.59328c-55.9104 0-101.403307-45.479253-101.403307-101.403307 0-55.896747 45.492907-101.403307 101.403307-101.403306 55.924053 0 101.403307 45.50656 101.403306 101.403306 0 55.924053-45.479253 101.403307-101.403306 101.403307z m0-250.59328c82.261333 0 149.189973 66.942293 149.189973 149.189973 0 82.274987-66.92864 149.189973-149.189973 149.189974-82.24768 0-149.189973-66.914987-149.189974-149.189974 0-82.24768 66.942293-149.189973 149.189974-149.189973z m266.581333-535.3472H271.537493l-50.885973-0.587093c38.406827-24.507733 183.022933-77.059413 310.531413-116.77696h712.854187v117.364053zM1267.930453 12.57472c13.18912 0 23.893333 10.69056 23.893334 23.893333v165.15072a23.893333 23.893333 0 0 1-23.893334 23.893334H271.27808l-79.99488-0.914774a23.893333 23.893333 0 0 1-23.63392-23.893333v-27.552427c0-1.31072 0.109227-2.62144 0.32768-3.918506 2.430293-14.568107 8.11008-48.70144 352.50176-155.593387 2.29376-0.69632 4.683093-1.06496 7.072427-1.06496h740.379306z m-25.709226 785.926827h-42.175147c-28.071253-98.05824-118.49728-167.348907-222.098773-167.348907-103.615147 0-194.041173 69.290667-222.112427 167.348907H595.88608c-28.071253-98.05824-118.49728-167.348907-222.098773-167.348907-103.615147 0-194.041173 69.290667-222.112427 167.348907H59.856213V749.431467h24.94464a23.866027 23.866027 0 0 0 23.606614-27.511467c-10.144427-65.972907-9.516373-117.88288 1.693013-138.8544 42.530133-79.530667 241.636693-238.75584 273.312427-243.643733h766.675626a48.428373 48.428373 0 0 1 48.37376 48.37376V725.538133c0 13.202773 10.704213 23.893333 23.893334 23.893334h19.8656v49.07008z m23.893333-96.856747c13.202773 0 23.893333 10.704213 23.893333 23.893333v96.856747a23.893333 23.893333 0 0 1-23.893333 23.893333h-84.882773a23.893333 23.893333 0 0 1-23.456427-19.319466c-16.71168-85.77024-92.351147-148.02944-179.828053-148.02944-87.49056 0-163.130027 62.2592-179.841707 148.02944a23.893333 23.893333 0 0 1-23.456427 19.319466H577.071787a23.893333 23.893333 0 0 1-23.456427-19.319466c-16.71168-85.77024-92.351147-148.02944-179.828053-148.02944-87.49056 0-163.130027 62.2592-179.841707 148.02944a23.893333 23.893333 0 0 1-23.456427 19.319466H35.96288a23.893333 23.893333 0 0 1-23.893333-23.893333V725.538133c0-13.18912 10.717867-23.893333 23.893333-23.893333h21.476693c-5.911893-50.367147-7.154347-108.066133 10.513067-141.120853 45.71136-85.428907 260.9152-268.888747 315.460267-268.888747h766.675626a96.269653 96.269653 0 0 1 96.160427 96.160427V701.6448h19.8656zM478.562987 481.512107l0.628053-56.579414a871.410347 871.410347 0 0 0-31.98976-0.65536c-25.873067 0-35.990187 1.611093-39.307947 2.37568-7.482027 6.67648-29.12256 28.822187-53.90336 54.777174l124.573014 0.08192z m26.309973-103.164587a23.906987 23.906987 0 0 1 22.350507 24.111787l-1.133227 103.2192a23.893333 23.893333 0 0 1-23.893333 23.63392h-0.013654l-203.666773-0.136534a23.893333 23.893333 0 0 1-17.421653-40.22272c19.82464-21.149013 85.579093-90.97216 99.314346-101.5808 8.710827-6.71744 22.923947-10.881707 66.792107-10.881706 28.30336 0 56.48384 1.788587 57.67168 1.856853z m583.51616 103.17824a23.893333 23.893333 0 1 1 0 47.786667H593.46944a23.893333 23.893333 0 0 1-23.893333-23.893334v-103.778986a23.893333 23.893333 0 0 1 47.786666 0v79.885653h471.026347z" fill="#ffffff" p-id="1636"></path></svg>